<svg xmlns="http://www.w3.org/2000/svg" viewBox="0 0 900 560" font-family="'Space Grotesk','Helvetica Neue',Arial,sans-serif">
  <rect width="900" height="560" fill="#FAF9F6"/>
  <rect x="0" y="0" width="450" height="440" fill="#FFFFFF"/>
  <text x="40" y="52" font-size="13" letter-spacing="2" fill="#8A8778">ASSEMBLED MARK</text>
  <g transform="translate(225,230) scale(0.95)"><g><g transform="translate(0,0)">
    <polygon points="-68.00,34.00 0.00,68.00 0.00,34.00 -68.00,0.00" fill="#147A5A"/>
    <polygon points="68.00,34.00 0.00,68.00 0.00,34.00 68.00,0.00" fill="#1D9E75"/>
    <polygon points="0.00,-34.00 68.00,0.00 0.00,34.00 -68.00,0.00" fill="#5DCAA5"/>
  </g><g transform="translate(0,0)">
    <polygon points="0.00,0.00 34.00,17.00 34.00,-51.00 0.00,-68.00" fill="#C67C10"/>
    <polygon points="68.00,0.00 34.00,17.00 34.00,-51.00 68.00,-68.00" fill="#EF9F27"/>
    <polygon points="34.00,-85.00 68.00,-68.00 34.00,-51.00 0.00,-68.00" fill="#FAC775"/>
  </g><g transform="translate(0,0)">
    <polygon points="-68.00,0.00 -34.00,17.00 -34.00,-17.00 -68.00,-34.00" fill="#A8431F"/>
    <polygon points="0.00,0.00 -34.00,17.00 -34.00,-17.00 0.00,-34.00" fill="#D85A30"/>
    <polygon points="-34.00,-51.00 0.00,-34.00 -34.00,-17.00 -68.00,-34.00" fill="#F0997B"/>
  </g></g></g>
  <g transform="translate(150,378)">
    <text font-size="52" font-weight="500" letter-spacing="14" fill="#26261F">d g d n</text>
  </g>
  <text x="490" y="52" font-size="13" letter-spacing="2" fill="#8A8778">EXPLODED &#183; INTEGRATION CUE</text>
  <g transform="translate(670,250) scale(0.95)"><g><line x1="34" y1="-34" x2="60" y2="-104" stroke="#26261F" stroke-width="1.5" stroke-dasharray="3 5" stroke-linecap="round" opacity="0.45"/><line x1="-34" y1="-17" x2="-80" y2="3" stroke="#26261F" stroke-width="1.5" stroke-dasharray="3 5" stroke-linecap="round" opacity="0.45"/><g transform="translate(0,40)">
    <polygon points="-68.00,34.00 0.00,68.00 0.00,34.00 -68.00,0.00" fill="#147A5A"/>
    <polygon points="68.00,34.00 0.00,68.00 0.00,34.00 68.00,0.00" fill="#1D9E75"/>
    <polygon points="0.00,-34.00 68.00,0.00 0.00,34.00 -68.00,0.00" fill="#5DCAA5"/>
  </g><g transform="translate(26,-70)">
    <polygon points="0.00,0.00 34.00,17.00 34.00,-51.00 0.00,-68.00" fill="#C67C10"/>
    <polygon points="68.00,0.00 34.00,17.00 34.00,-51.00 68.00,-68.00" fill="#EF9F27"/>
    <polygon points="34.00,-85.00 68.00,-68.00 34.00,-51.00 0.00,-68.00" fill="#FAC775"/>
  </g><g transform="translate(-46,20)">
    <polygon points="-68.00,0.00 -34.00,17.00 -34.00,-17.00 -68.00,-34.00" fill="#A8431F"/>
    <polygon points="0.00,0.00 -34.00,17.00 -34.00,-17.00 0.00,-34.00" fill="#D85A30"/>
    <polygon points="-34.00,-51.00 0.00,-34.00 -34.00,-17.00 -68.00,-34.00" fill="#F0997B"/>
  </g></g></g>
  <text x="40" y="452" font-size="13" letter-spacing="2" fill="#8A8778">PALETTE</text>
  <rect x="90" y="470" width="70" height="42" rx="4" fill="#1D9E75"/><text x="96" y="528" font-family="monospace" font-size="11" fill="#26261F">teal-500</text><rect x="182" y="470" width="70" height="42" rx="4" fill="#5DCAA5"/><text x="188" y="528" font-family="monospace" font-size="11" fill="#26261F">teal-300</text><rect x="274" y="470" width="70" height="42" rx="4" fill="#D85A30"/><text x="280" y="528" font-family="monospace" font-size="11" fill="#26261F">coral-500</text><rect x="366" y="470" width="70" height="42" rx="4" fill="#F0997B"/><text x="372" y="528" font-family="monospace" font-size="11" fill="#26261F">coral-300</text><rect x="458" y="470" width="70" height="42" rx="4" fill="#EF9F27"/><text x="464" y="528" font-family="monospace" font-size="11" fill="#26261F">amber-400</text><rect x="550" y="470" width="70" height="42" rx="4" fill="#FAC775"/><text x="556" y="528" font-family="monospace" font-size="11" fill="#26261F">amber-200</text><rect x="642" y="470" width="70" height="42" rx="4" fill="#26261F"/><text x="648" y="528" font-family="monospace" font-size="11" fill="#26261F">ink</text><rect x="734" y="470" width="70" height="42" rx="4" fill="#FAF9F6"/><text x="740" y="528" font-family="monospace" font-size="11" fill="#26261F">paper-w</text>
</svg>
