<svg xmlns="http://www.w3.org/2000/svg" viewBox="0 0 1064 317"><rect x="-50" y="-50" width="1164" height="417" fill="#FAF9F6"/><g transform="translate(0,0)"><svg x="0" y="0" width="242" height="301" viewBox="-132 -175 242 301"><g transform="translate(0,0)"><line x1="34" y1="-68" x2="64" y2="-146" stroke="#26261F" stroke-width="1.5" stroke-dasharray="3 5" stroke-linecap="round" opacity="0.40"/><line x1="-34" y1="-34" x2="-86" y2="-12" stroke="#26261F" stroke-width="1.5" stroke-dasharray="3 5" stroke-linecap="round" opacity="0.40"/></g><g transform="translate(0.00,46.00)"><polygon points="-68.00,34.00 0.00,68.00 0.00,34.00 -68.00,0.00" fill="#147A5A"/><polygon points="68.00,34.00 0.00,68.00 0.00,34.00 68.00,0.00" fill="#1D9E75"/><polygon points="0.00,-34.00 68.00,0.00 0.00,34.00 -68.00,0.00" fill="#5DCAA5"/></g><g transform="translate(30.00,-78.00)"><polygon points="0.00,0.00 34.00,17.00 34.00,-51.00 0.00,-68.00" fill="#C67C10"/><polygon points="68.00,0.00 34.00,17.00 34.00,-51.00 68.00,-68.00" fill="#EF9F27"/><polygon points="34.00,-85.00 68.00,-68.00 34.00,-51.00 0.00,-68.00" fill="#FAC775"/></g><g transform="translate(-52.00,22.00)"><polygon points="-68.00,0.00 -34.00,17.00 -34.00,-17.00 -68.00,-34.00" fill="#A8431F"/><polygon points="0.00,0.00 -34.00,17.00 -34.00,-17.00 0.00,-34.00" fill="#D85A30"/><polygon points="-34.00,-51.00 0.00,-34.00 -34.00,-17.00 -68.00,-34.00" fill="#F0997B"/></g></svg><text x="121" y="297" text-anchor="middle" font-family="monospace" font-size="11" fill="#8A8778">scattered</text></g><g transform="translate(266,0)"><svg x="0" y="0" width="242" height="301" viewBox="-132 -175 242 301"><g transform="translate(0,0)"><line x1="34" y1="-68" x2="52.6" y2="-116.36" stroke="#26261F" stroke-width="1.5" stroke-dasharray="3 5" stroke-linecap="round" opacity="0.25"/><line x1="-34" y1="-34" x2="-66.24000000000001" y2="-20.36" stroke="#26261F" stroke-width="1.5" stroke-dasharray="3 5" stroke-linecap="round" opacity="0.25"/></g><g transform="translate(0.00,28.52)"><polygon points="-68.00,34.00 0.00,68.00 0.00,34.00 -68.00,0.00" fill="#147A5A"/><polygon points="68.00,34.00 0.00,68.00 0.00,34.00 68.00,0.00" fill="#1D9E75"/><polygon points="0.00,-34.00 68.00,0.00 0.00,34.00 -68.00,0.00" fill="#5DCAA5"/></g><g transform="translate(18.60,-48.36)"><polygon points="0.00,0.00 34.00,17.00 34.00,-51.00 0.00,-68.00" fill="#C67C10"/><polygon points="68.00,0.00 34.00,17.00 34.00,-51.00 68.00,-68.00" fill="#EF9F27"/><polygon points="34.00,-85.00 68.00,-68.00 34.00,-51.00 0.00,-68.00" fill="#FAC775"/></g><g transform="translate(-32.24,13.64)"><polygon points="-68.00,0.00 -34.00,17.00 -34.00,-17.00 -68.00,-34.00" fill="#A8431F"/><polygon points="0.00,0.00 -34.00,17.00 -34.00,-17.00 0.00,-34.00" fill="#D85A30"/><polygon points="-34.00,-51.00 0.00,-34.00 -34.00,-17.00 -68.00,-34.00" fill="#F0997B"/></g></svg><text x="121" y="297" text-anchor="middle" font-family="monospace" font-size="11" fill="#8A8778">connectors + converge</text></g><g transform="translate(532,0)"><svg x="0" y="0" width="242" height="301" viewBox="-132 -175 242 301"><g transform="translate(0,0)"><line x1="34" y1="-68" x2="42.4" y2="-89.84" stroke="#26261F" stroke-width="1.5" stroke-dasharray="3 5" stroke-linecap="round" opacity="0.11"/><line x1="-34" y1="-34" x2="-48.56" y2="-27.84" stroke="#26261F" stroke-width="1.5" stroke-dasharray="3 5" stroke-linecap="round" opacity="0.11"/></g><g transform="translate(0.00,12.88)"><polygon points="-68.00,34.00 0.00,68.00 0.00,34.00 -68.00,0.00" fill="#147A5A"/><polygon points="68.00,34.00 0.00,68.00 0.00,34.00 68.00,0.00" fill="#1D9E75"/><polygon points="0.00,-34.00 68.00,0.00 0.00,34.00 -68.00,0.00" fill="#5DCAA5"/></g><g transform="translate(8.40,-21.84)"><polygon points="0.00,0.00 34.00,17.00 34.00,-51.00 0.00,-68.00" fill="#C67C10"/><polygon points="68.00,0.00 34.00,17.00 34.00,-51.00 68.00,-68.00" fill="#EF9F27"/><polygon points="34.00,-85.00 68.00,-68.00 34.00,-51.00 0.00,-68.00" fill="#FAC775"/></g><g transform="translate(-14.56,6.16)"><polygon points="-68.00,0.00 -34.00,17.00 -34.00,-17.00 -68.00,-34.00" fill="#A8431F"/><polygon points="0.00,0.00 -34.00,17.00 -34.00,-17.00 0.00,-34.00" fill="#D85A30"/><polygon points="-34.00,-51.00 0.00,-34.00 -34.00,-17.00 -68.00,-34.00" fill="#F0997B"/></g></svg><text x="121" y="297" text-anchor="middle" font-family="monospace" font-size="11" fill="#8A8778">clicking in</text></g><g transform="translate(798,0)"><svg x="0" y="0" width="242" height="301" viewBox="-132 -175 242 301"><g transform="translate(0,0)"><line x1="34" y1="-68" x2="34" y2="-68" stroke="#26261F" stroke-width="1.5" stroke-dasharray="3 5" stroke-linecap="round" opacity="0.00"/><line x1="-34" y1="-34" x2="-34" y2="-34" stroke="#26261F" stroke-width="1.5" stroke-dasharray="3 5" stroke-linecap="round" opacity="0.00"/></g><g transform="translate(0.00,0.00)"><polygon points="-68.00,34.00 0.00,68.00 0.00,34.00 -68.00,0.00" fill="#147A5A"/><polygon points="68.00,34.00 0.00,68.00 0.00,34.00 68.00,0.00" fill="#1D9E75"/><polygon points="0.00,-34.00 68.00,0.00 0.00,34.00 -68.00,0.00" fill="#5DCAA5"/></g><g transform="translate(0.00,0.00)"><polygon points="0.00,0.00 34.00,17.00 34.00,-51.00 0.00,-68.00" fill="#C67C10"/><polygon points="68.00,0.00 34.00,17.00 34.00,-51.00 68.00,-68.00" fill="#EF9F27"/><polygon points="34.00,-85.00 68.00,-68.00 34.00,-51.00 0.00,-68.00" fill="#FAC775"/></g><g transform="translate(0.00,0.00)"><polygon points="-68.00,0.00 -34.00,17.00 -34.00,-17.00 -68.00,-34.00" fill="#A8431F"/><polygon points="0.00,0.00 -34.00,17.00 -34.00,-17.00 0.00,-34.00" fill="#D85A30"/><polygon points="-34.00,-51.00 0.00,-34.00 -34.00,-17.00 -68.00,-34.00" fill="#F0997B"/></g></svg><text x="121" y="297" text-anchor="middle" font-family="monospace" font-size="11" fill="#8A8778">assembled</text></g></svg>
