<svg xmlns="http://www.w3.org/2000/svg" width="390" height="760" viewBox="0 0 390 760" font-family="'Space Grotesk','Helvetica Neue',Arial,sans-serif">
  <rect width="390" height="760" fill="#FFFFFF"/>
  <!-- top row -->
  <svg x="22" y="20" width="24" height="26" viewBox="-74 -91 148 165">
    <polygon points="-68,34 0,68 0,34 -68,0" fill="#147A5A"/><polygon points="68,34 0,68 0,34 68,0" fill="#1D9E75"/><polygon points="0,-34 68,0 0,34 -68,0" fill="#5DCAA5"/>
    <polygon points="0,0 34,17 34,-51 0,-68" fill="#C67C10"/><polygon points="68,0 34,17 34,-51 68,-68" fill="#EF9F27"/><polygon points="34,-85 68,-68 34,-51 0,-68" fill="#FAC775"/>
    <polygon points="-68,0 -34,17 -34,-17 -68,-34" fill="#A8431F"/><polygon points="0,0 -34,17 -34,-17 0,-34" fill="#D85A30"/><polygon points="-34,-51 0,-34 -34,-17 -68,-34" fill="#F0997B"/>
  </svg>
  <text x="55" y="40" font-size="17" font-weight="500" letter-spacing="4" fill="#26261F">d g d n</text>
  <g stroke="#26261F" stroke-width="2.2" stroke-linecap="round"><line x1="352" y1="26" x2="368" y2="42"/><line x1="368" y1="26" x2="352" y2="42"/></g>
  <line x1="0" y1="64" x2="390" y2="64" stroke="#E5E3DC"/>
<text x="24" y="112" font-size="26" font-weight="500" fill="#26261F">Services</text><line x1="24" y1="128" x2="366" y2="128" stroke="#E5E3DC"/><text x="24" y="176" font-size="26" font-weight="500" fill="#26261F">Work</text><line x1="24" y1="192" x2="366" y2="192" stroke="#E5E3DC"/><text x="24" y="240" font-size="26" font-weight="500" fill="#26261F">Approach</text><line x1="24" y1="256" x2="366" y2="256" stroke="#E5E3DC"/><text x="24" y="304" font-size="26" font-weight="500" fill="#26261F">Notes</text><rect x="352" y="288" width="12" height="12" transform="rotate(45 358 294)" fill="#1D9E75"/><line x1="24" y1="320" x2="366" y2="320" stroke="#E5E3DC"/><text x="24" y="368" font-size="26" font-weight="500" fill="#26261F">About</text><line x1="24" y1="384" x2="366" y2="384" stroke="#E5E3DC"/><rect x="24" y="446" width="342" height="58" rx="8" fill="#26261F"/><text x="195" y="483" text-anchor="middle" font-size="18" font-weight="500" fill="#FFFFFF">Talk to us</text><rect x="24" y="700" width="14" height="14" transform="rotate(45 31 707)" fill="#5DCAA5"/><rect x="46" y="700" width="14" height="14" transform="rotate(45 53 707)" fill="#F0997B"/><rect x="68" y="700" width="14" height="14" transform="rotate(45 75 707)" fill="#FAC775"/></svg>