<svg xmlns="http://www.w3.org/2000/svg" viewBox="-112 -108.6 224 220.6"><rect x="-999" y="-999" width="3000" height="3000" fill="#FAF9F6"/><g><polygon points="-102.00,51.00 0.00,102.00 0.00,88.40 -102.00,37.40" fill="#05352A"/><polygon points="102.00,51.00 0.00,102.00 0.00,88.40 102.00,37.40" fill="#085041"/><polygon points="0.00,-13.60 102.00,37.40 0.00,88.40 -102.00,37.40" fill="#0C6B54"/></g><g><polygon points="-13.60,-6.80 0.00,0.00 0.00,-85.00 -13.60,-91.80" fill="#17170F"/><polygon points="13.60,-6.80 0.00,0.00 0.00,-85.00 13.60,-91.80" fill="#26261F"/><polygon points="0.00,-98.60 13.60,-91.80 0.00,-85.00 -13.60,-91.80" fill="#3A3A31"/></g><g><polygon points="74.80,37.40 88.40,44.20 88.40,-40.80 74.80,-47.60" fill="#17170F"/><polygon points="102.00,37.40 88.40,44.20 88.40,-40.80 102.00,-47.60" fill="#26261F"/><polygon points="88.40,-54.40 102.00,-47.60 88.40,-40.80 74.80,-47.60" fill="#3A3A31"/></g><g><polygon points="-102.00,37.40 -88.40,44.20 -88.40,-40.80 -102.00,-47.60" fill="#17170F"/><polygon points="-74.80,37.40 -88.40,44.20 -88.40,-40.80 -74.80,-47.60" fill="#26261F"/><polygon points="-88.40,-54.40 -74.80,-47.60 -88.40,-40.80 -102.00,-47.60" fill="#3A3A31"/></g><g><polygon points="-30.60,37.40 0.00,52.70 0.00,11.90 -30.60,-3.40" fill="#C67C10"/><polygon points="30.60,37.40 0.00,52.70 0.00,11.90 30.60,-3.40" fill="#EF9F27"/><polygon points="0.00,-18.70 30.60,-3.40 0.00,11.90 -30.60,-3.40" fill="#FAC775"/></g><g><polygon points="-13.60,81.60 0.00,88.40 0.00,3.40 -13.60,-3.40" fill="#17170F"/><polygon points="13.60,81.60 0.00,88.40 0.00,3.40 13.60,-3.40" fill="#26261F"/><polygon points="0.00,-10.20 13.60,-3.40 0.00,3.40 -13.60,-3.40" fill="#3A3A31"/></g></svg>
