<svg xmlns="http://www.w3.org/2000/svg" viewBox="-130 -173 238 297"><rect x="-999" y="-999" width="3000" height="3000" fill="#FAF9F6"/><line x1="34" y1="-68" x2="64" y2="-146" stroke="#26261F" stroke-width="1.5" stroke-dasharray="3 5" opacity="0.4"/><line x1="-34" y1="-34" x2="-86" y2="-12" stroke="#26261F" stroke-width="1.5" stroke-dasharray="3 5" opacity="0.4"/><g transform="translate(0,46)"><g><polygon points="-68.00,34.00 0.00,68.00 0.00,34.00 -68.00,0.00" fill="#147A5A"/><polygon points="68.00,34.00 0.00,68.00 0.00,34.00 68.00,0.00" fill="#1D9E75"/><polygon points="0.00,-34.00 68.00,0.00 0.00,34.00 -68.00,0.00" fill="#5DCAA5"/></g></g><g transform="translate(30,-78)"><g><polygon points="0.00,0.00 34.00,17.00 34.00,-51.00 0.00,-68.00" fill="#C67C10"/><polygon points="68.00,0.00 34.00,17.00 34.00,-51.00 68.00,-68.00" fill="#EF9F27"/><polygon points="34.00,-85.00 68.00,-68.00 34.00,-51.00 0.00,-68.00" fill="#FAC775"/></g></g><g transform="translate(-52,22)"><g><polygon points="-68.00,0.00 -34.00,17.00 -34.00,-17.00 -68.00,-34.00" fill="#A8431F"/><polygon points="0.00,0.00 -34.00,17.00 -34.00,-17.00 0.00,-34.00" fill="#D85A30"/><polygon points="-34.00,-51.00 0.00,-34.00 -34.00,-17.00 -68.00,-34.00" fill="#F0997B"/></g></g></svg>
