<svg xmlns="http://www.w3.org/2000/svg" viewBox="-44 -47.400000000000006 292 193.4"><rect x="-999" y="-999" width="3000" height="3000" fill="#FAF9F6"/><g><polygon points="-34.00,17.00 0.00,34.00 0.00,-3.40 -34.00,-20.40" fill="#147A5A"/><polygon points="34.00,17.00 0.00,34.00 0.00,-3.40 34.00,-20.40" fill="#1D9E75"/><polygon points="0.00,-37.40 34.00,-20.40 0.00,-3.40 -34.00,-20.40" fill="#5DCAA5"/></g><text x="0" y="-20.400000000000006" dominant-baseline="central" text-anchor="middle" font-size="20" font-weight="500" fill="#26261F">1</text><g><polygon points="0.00,34.00 34.00,51.00 34.00,-3.40 0.00,-20.40" fill="#147A5A"/><polygon points="68.00,34.00 34.00,51.00 34.00,-3.40 68.00,-20.40" fill="#1D9E75"/><polygon points="34.00,-37.40 68.00,-20.40 34.00,-3.40 0.00,-20.40" fill="#5DCAA5"/></g><text x="34" y="-20.400000000000006" dominant-baseline="central" text-anchor="middle" font-size="20" font-weight="500" fill="#26261F">2</text><g><polygon points="34.00,51.00 68.00,68.00 68.00,-3.40 34.00,-20.40" fill="#C67C10"/><polygon points="102.00,51.00 68.00,68.00 68.00,-3.40 102.00,-20.40" fill="#EF9F27"/><polygon points="68.00,-37.40 102.00,-20.40 68.00,-3.40 34.00,-20.40" fill="#FAC775"/></g><text x="68" y="-20.400000000000006" dominant-baseline="central" text-anchor="middle" font-size="20" font-weight="500" fill="#26261F">3</text><g><polygon points="68.00,68.00 102.00,85.00 102.00,-3.40 68.00,-20.40" fill="#C67C10"/><polygon points="136.00,68.00 102.00,85.00 102.00,-3.40 136.00,-20.40" fill="#EF9F27"/><polygon points="102.00,-37.40 136.00,-20.40 102.00,-3.40 68.00,-20.40" fill="#FAC775"/></g><text x="102" y="-20.400000000000006" dominant-baseline="central" text-anchor="middle" font-size="20" font-weight="500" fill="#26261F">4</text><g><polygon points="102.00,85.00 136.00,102.00 136.00,-3.40 102.00,-20.40" fill="#C67C10"/><polygon points="170.00,85.00 136.00,102.00 136.00,-3.40 170.00,-20.40" fill="#EF9F27"/><polygon points="136.00,-37.40 170.00,-20.40 136.00,-3.40 102.00,-20.40" fill="#FAC775"/></g><text x="136" y="-20.400000000000006" dominant-baseline="central" text-anchor="middle" font-size="20" font-weight="500" fill="#26261F">5</text><g><polygon points="136.00,102.00 170.00,119.00 170.00,-3.40 136.00,-20.40" fill="#A8431F"/><polygon points="204.00,102.00 170.00,119.00 170.00,-3.40 204.00,-20.40" fill="#D85A30"/><polygon points="170.00,-37.40 204.00,-20.40 170.00,-3.40 136.00,-20.40" fill="#F0997B"/></g><text x="170" y="-20.400000000000006" dominant-baseline="central" text-anchor="middle" font-size="20" font-weight="500" fill="#26261F">6</text><g><polygon points="170.00,119.00 204.00,136.00 204.00,-3.40 170.00,-20.40" fill="#A8431F"/><polygon points="238.00,119.00 204.00,136.00 204.00,-3.40 238.00,-20.40" fill="#D85A30"/><polygon points="204.00,-37.40 238.00,-20.40 204.00,-3.40 170.00,-20.40" fill="#F0997B"/></g><text x="204" y="-20.399999999999977" dominant-baseline="central" text-anchor="middle" font-size="20" font-weight="500" fill="#26261F">7</text></svg>
