<svg xmlns="http://www.w3.org/2000/svg" width="380" height="524" viewBox="0 0 380 524" font-family="'Space Grotesk',Arial,sans-serif"><rect width="380" height="524" fill="#FFFFFF"/><g transform="translate(20,58) scale(0.8)"><polygon points="-34.0,17.0 0.0,34.0 0.0,0.0 -34.0,-17.0" fill="#147A5A"/><polygon points="34.0,17.0 0.0,34.0 0.0,0.0 34.0,-17.0" fill="#1D9E75"/><polygon points="0.0,-34.0 34.0,-17.0 0.0,0.0 -34.0,-17.0" fill="#5DCAA5"/><text x="0" y="-17" dominant-baseline="central" text-anchor="middle" font-size="13" font-weight="500" fill="#085041">1</text></g><text x="95" y="40" font-size="19" font-weight="500" fill="#26261F">Discover</text><g transform="translate(20,130) scale(0.8)"><polygon points="-34.0,17.0 0.0,34.0 0.0,0.0 -34.0,-17.0" fill="#147A5A"/><polygon points="34.0,17.0 0.0,34.0 0.0,0.0 34.0,-17.0" fill="#1D9E75"/><polygon points="0.0,-34.0 34.0,-17.0 0.0,0.0 -34.0,-17.0" fill="#5DCAA5"/><text x="0" y="-17" dominant-baseline="central" text-anchor="middle" font-size="13" font-weight="500" fill="#085041">2</text></g><text x="95" y="112" font-size="19" font-weight="500" fill="#26261F">Design</text><g transform="translate(20,202) scale(0.8)"><polygon points="-34.0,17.0 0.0,34.0 0.0,0.0 -34.0,-17.0" fill="#C67C10"/><polygon points="34.0,17.0 0.0,34.0 0.0,0.0 34.0,-17.0" fill="#EF9F27"/><polygon points="0.0,-34.0 34.0,-17.0 0.0,0.0 -34.0,-17.0" fill="#FAC775"/><text x="0" y="-17" dominant-baseline="central" text-anchor="middle" font-size="13" font-weight="500" fill="#633806">3</text></g><text x="95" y="184" font-size="19" font-weight="500" fill="#26261F">Validate</text><g transform="translate(20,274) scale(0.8)"><polygon points="-34.0,17.0 0.0,34.0 0.0,0.0 -34.0,-17.0" fill="#C67C10"/><polygon points="34.0,17.0 0.0,34.0 0.0,0.0 34.0,-17.0" fill="#EF9F27"/><polygon points="0.0,-34.0 34.0,-17.0 0.0,0.0 -34.0,-17.0" fill="#FAC775"/><text x="0" y="-17" dominant-baseline="central" text-anchor="middle" font-size="13" font-weight="500" fill="#633806">4</text></g><text x="95" y="256" font-size="19" font-weight="500" fill="#26261F">Build</text><g transform="translate(20,346) scale(0.8)"><polygon points="-34.0,17.0 0.0,34.0 0.0,0.0 -34.0,-17.0" fill="#C67C10"/><polygon points="34.0,17.0 0.0,34.0 0.0,0.0 34.0,-17.0" fill="#EF9F27"/><polygon points="0.0,-34.0 34.0,-17.0 0.0,0.0 -34.0,-17.0" fill="#FAC775"/><text x="0" y="-17" dominant-baseline="central" text-anchor="middle" font-size="13" font-weight="500" fill="#633806">5</text></g><text x="95" y="328" font-size="19" font-weight="500" fill="#26261F">Integrate</text><g transform="translate(20,418) scale(0.8)"><polygon points="-34.0,17.0 0.0,34.0 0.0,0.0 -34.0,-17.0" fill="#A8431F"/><polygon points="34.0,17.0 0.0,34.0 0.0,0.0 34.0,-17.0" fill="#D85A30"/><polygon points="0.0,-34.0 34.0,-17.0 0.0,0.0 -34.0,-17.0" fill="#F0997B"/><text x="0" y="-17" dominant-baseline="central" text-anchor="middle" font-size="13" font-weight="500" fill="#712B13">6</text></g><text x="95" y="400" font-size="19" font-weight="500" fill="#26261F">Assure</text><g transform="translate(20,490) scale(0.8)"><polygon points="-34.0,17.0 0.0,34.0 0.0,0.0 -34.0,-17.0" fill="#A8431F"/><polygon points="34.0,17.0 0.0,34.0 0.0,0.0 34.0,-17.0" fill="#D85A30"/><polygon points="0.0,-34.0 34.0,-17.0 0.0,0.0 -34.0,-17.0" fill="#F0997B"/><text x="0" y="-17" dominant-baseline="central" text-anchor="middle" font-size="13" font-weight="500" fill="#712B13">7</text></g><text x="95" y="472" font-size="19" font-weight="500" fill="#26261F">Deploy and support</text></svg>