<svg xmlns="http://www.w3.org/2000/svg" width="1000" height="300" viewBox="0 0 1000 300" font-family="'Space Grotesk',Arial,sans-serif"><rect width="1000" height="300" fill="#FAF9F6"/><text x="60" y="60" font-family="monospace" font-size="12" letter-spacing="3" fill="#726F63">BY THE NUMBERS</text><g transform="translate(60,95) scale(0.5)"><polygon points="-15,7 0,15 0,7 -15,0" fill="#147A5A"/><polygon points="15,7 0,15 0,7 15,0" fill="#1D9E75"/><polygon points="0,-8 15,0 0,7 -15,0" fill="#5DCAA5"/></g><text x="60" y="180" font-size="52" font-weight="500" fill="#26261F">20+</text><text x="60" y="215" font-size="15" fill="#3f3f38">years of senior</text><text x="60" y="236" font-size="15" fill="#3f3f38">engineering leadership</text><g transform="translate(295,95) scale(0.5)"><polygon points="-15,7 0,15 0,7 -15,0" fill="#A8431F"/><polygon points="15,7 0,15 0,7 15,0" fill="#D85A30"/><polygon points="0,-8 15,0 0,7 -15,0" fill="#F0997B"/></g><text x="295" y="180" font-size="52" font-weight="500" fill="#26261F">8+</text><text x="295" y="215" font-size="15" fill="#3f3f38">years in enterprise</text><text x="295" y="236" font-size="15" fill="#3f3f38">banking &amp; automation</text><g transform="translate(530,95) scale(0.5)"><polygon points="-15,7 0,15 0,7 -15,0" fill="#C67C10"/><polygon points="15,7 0,15 0,7 15,0" fill="#EF9F27"/><polygon points="0,-8 15,0 0,7 -15,0" fill="#FAC775"/></g><text x="530" y="180" font-size="52" font-weight="500" fill="#26261F">168</text><text x="530" y="215" font-size="15" fill="#3f3f38">regional campaigns</text><text x="530" y="236" font-size="15" fill="#3f3f38">shipped</text><g transform="translate(765,95) scale(0.5)"><polygon points="-15,7 0,15 0,7 -15,0" fill="#147A5A"/><polygon points="15,7 0,15 0,7 15,0" fill="#1D9E75"/><polygon points="0,-8 15,0 0,7 -15,0" fill="#5DCAA5"/></g><text x="765" y="180" font-size="52" font-weight="500" fill="#26261F">11,672</text><text x="765" y="215" font-size="15" fill="#3f3f38">campaign assets</text><text x="765" y="236" font-size="15" fill="#3f3f38">delivered</text><text x="60" y="285" font-family="monospace" font-size="11" fill="#726F63">Samsung figures from the 2026 campaign workspace, delivered via Cheil.</text></svg>