<svg xmlns="http://www.w3.org/2000/svg" viewBox="-95.0 -87.5 183.2 153.3">
  <defs>
    <radialGradient id="glow" cx="50%" cy="42%" r="55%">
      <stop offset="0%" stop-color="#f5a623" stop-opacity="0.55"/>
      <stop offset="100%" stop-color="#f5a623" stop-opacity="0"/>
    </radialGradient>
  </defs>
  <ellipse cx="0.0" cy="-33.0" rx="76.9" ry="58.3" fill="url(#glow)"/>
  <polygon points="-31.69,-50.91 49.36,-43.50 49.36,-28.50 -31.69,-35.91" fill="#0f0b07" stroke="#f5a623" stroke-opacity="0.25" stroke-width="0.75"/>
  <polygon points="-68.95,-8.69 -31.69,-50.91 -31.69,-35.91 -68.95,6.31" fill="#0f0b07" stroke="#f5a623" stroke-opacity="0.25" stroke-width="0.75"/>
  <polygon points="49.36,-43.50 62.20,3.30 62.20,18.30 49.36,-28.50" fill="#0f0b07" stroke="#f5a623" stroke-opacity="0.25" stroke-width="0.75"/>
  <polygon points="-10.92,24.81 -68.95,-8.69 -68.95,6.31 -10.92,39.81" fill="#0f0b07" stroke="#f5a623" stroke-opacity="0.25" stroke-width="0.75"/>
  <polygon points="62.20,3.30 -10.92,24.81 -10.92,39.81 62.20,18.30" fill="#0f0b07" stroke="#f5a623" stroke-opacity="0.25" stroke-width="0.75"/>
  <polygon points="49.36,-43.50 62.20,3.30 -10.92,24.81 -68.95,-8.69 -31.69,-50.91" fill="#1b150d" stroke="#f5a623" stroke-width="1.5"/>
  <polygon points="24.68,-29.25 31.10,-5.85 -5.46,4.90 -34.48,-11.85 -15.85,-32.96" fill="none" stroke="#f5a623" stroke-opacity="0.4" stroke-width="0.75"/>
  <polygon points="-40.54,-44.45 -25.99,-36.05 -25.99,-49.55 -40.54,-57.95" fill="#7b801d"/><polygon points="-11.44,-44.45 -25.99,-36.05 -25.99,-49.55 -11.44,-57.95" fill="#a8af28"/><polygon points="-25.99,-66.35 -11.44,-57.95 -25.99,-49.55 -40.54,-57.95" fill="#cdd631"/>
  <polygon points="25.93,-38.37 40.48,-29.97 40.48,-43.47 25.93,-51.87" fill="#994038"/><polygon points="55.03,-38.37 40.48,-29.97 40.48,-43.47 55.03,-51.87" fill="#d1584d"/><polygon points="40.48,-60.27 55.03,-51.87 40.48,-43.47 25.93,-51.87" fill="#ff6b5e"/>
  <polygon points="-25.98,-15.00 0.00,0.00 0.00,-40.50 -25.98,-55.50" fill="#b9781a"/><polygon points="25.98,-15.00 0.00,0.00 0.00,-40.50 25.98,-55.50" fill="#f5a623"/><polygon points="0.00,-70.50 25.98,-55.50 0.00,-40.50 -25.98,-55.50" fill="#ffce6a"/>
  <polygon points="-71.09,-9.83 -56.54,-1.43 -56.54,-14.93 -71.09,-23.33" fill="#366599"/><polygon points="-41.99,-9.83 -56.54,-1.43 -56.54,-14.93 -41.99,-23.33" fill="#4a8bd1"/><polygon points="-56.54,-31.73 -41.99,-23.33 -56.54,-14.93 -71.09,-23.33" fill="#5aa9ff"/>
  <polygon points="36.46,0.00 51.01,8.40 51.01,-5.10 36.46,-13.50" fill="#936415"/><polygon points="65.55,0.00 51.01,8.40 51.01,-5.10 65.55,-13.50" fill="#c9881d"/><polygon points="51.01,-21.90 65.55,-13.50 51.01,-5.10 36.46,-13.50" fill="#f5a623"/>
  <polygon points="-23.50,17.64 -8.96,26.04 -8.96,12.54 -23.50,4.14" fill="#1c766d"/><polygon points="5.59,17.64 -8.96,26.04 -8.96,12.54 5.59,4.14" fill="#26a195"/><polygon points="-8.96,-4.26 5.59,4.14 -8.96,12.54 -23.50,4.14" fill="#2ec4b6"/>
</svg>
